<?xml version="1.0" encoding="UTF-8" standalone="no"?>
<!-- Generator: Adobe Illustrator 14.0.0, SVG Export Plug-In . SVG Version: 6.00 Build 43363)  -->

<svg
   xmlns:dc="http://purl.org/dc/elements/1.1/"
   xmlns:cc="http://creativecommons.org/ns#"
   xmlns:rdf="http://www.w3.org/1999/02/22-rdf-syntax-ns#"
   xmlns:svg="http://www.w3.org/2000/svg"
   xmlns="http://www.w3.org/2000/svg"
   xmlns:xlink="http://www.w3.org/1999/xlink"
   xmlns:sodipodi="http://sodipodi.sourceforge.net/DTD/sodipodi-0.dtd"
   xmlns:inkscape="http://www.inkscape.org/namespaces/inkscape"
   version="1.1"
   id="Ebene_1"
   x="0px"
   y="0px"
   width="450"
   height="900"
   viewBox="0 0 450 900"
   enable-background="new 0 0 800 600"
   xml:space="preserve"
   inkscape:version="0.91 r13725"
   sodipodi:docname="phone-mockup.svg"
   inkscape:export-filename="phone-mockup2.png"
   inkscape:export-xdpi="90"
   inkscape:export-ydpi="90"><sodipodi:namedview
     pagecolor="#ffffff"
     bordercolor="#666666"
     borderopacity="1"
     objecttolerance="10"
     gridtolerance="10"
     guidetolerance="10"
     inkscape:pageopacity="0"
     inkscape:pageshadow="2"
     inkscape:window-width="1362"
     inkscape:window-height="729"
     id="namedview257"
     showgrid="false"
     inkscape:zoom="0.25"
     inkscape:cx="-166.57009"
     inkscape:cy="165.47328"
     inkscape:window-x="0"
     inkscape:window-y="37"
     inkscape:window-maximized="0"
     inkscape:current-layer="Ebene_1"
     showguides="true"
     inkscape:guide-bbox="true"
     fit-margin-top="0"
     fit-margin-left="0"
     fit-margin-right="0"
     fit-margin-bottom="0"
     inkscape:snap-bbox="true"
     inkscape:bbox-paths="true"
     inkscape:snap-global="true"
     inkscape:snap-to-guides="true"
     inkscape:snap-grids="true"
     inkscape:bbox-nodes="true"><sodipodi:guide
       id="guide6893"
       orientation="-653.40962,0"
       position="36.755828,139.18501" /><sodipodi:guide
       id="guide6895"
       orientation="0,374.84092"
       position="36.755828,792.59463" /><sodipodi:guide
       id="guide6897"
       orientation="653.40962,0"
       position="411.59675,792.59463" /><sodipodi:guide
       id="guide6899"
       orientation="0,-374.84092"
       position="411.59675,139.18501" /></sodipodi:namedview><metadata
     id="metadata261"><rdf:RDF><cc:Work
         rdf:about=""><dc:format>image/svg+xml</dc:format><dc:type
           rdf:resource="http://purl.org/dc/dcmitype/StillImage" /><dc:title /></cc:Work></rdf:RDF></metadata><defs
     id="defs259"><linearGradient
       id="linearGradient6717"
       inkscape:collect="always"><stop
         id="stop6719"
         offset="0"
         style="stop-color:#ffffff;stop-opacity:1;" /><stop
         id="stop6721"
         offset="1"
         style="stop-color:#ffffff;stop-opacity:0;" /></linearGradient><defs
       id="defs138"><rect
         y="0"
         x="0"
         id="SVGID_6_"
         width="800"
         height="600" /></defs><clipPath
       id="SVGID_7_"><use
         height="100%"
         width="100%"
         y="0"
         x="0"
         style="overflow:visible"
         xlink:href="#SVGID_6_"
         overflow="visible"
         id="use142" /></clipPath><defs
       id="defs5"><rect
         y="0"
         x="0"
         id="SVGID_1_"
         width="800"
         height="600" /></defs><clipPath
       id="SVGID_2_"><use
         height="100%"
         width="100%"
         y="0"
         x="0"
         style="overflow:visible"
         xlink:href="#SVGID_1_"
         overflow="visible"
         id="use9" /></clipPath><mask
       id="id0"><linearGradient
         y2="2069.4399"
         x2="2024.2"
         y1="2145.5901"
         x1="2025.9"
         gradientUnits="userSpaceOnUse"
         id="id1"><stop
           id="stop10"
           style="stop-opacity:1; stop-color:white"
           offset="0" /><stop
           id="stop12"
           style="stop-opacity:0; stop-color:white"
           offset="1" /></linearGradient><rect
         id="rect14"
         height="92.704697"
         width="43.354301"
         y="2061"
         x="2003"
         style="fill:url(#id1)" /></mask><mask
       id="id2"><linearGradient
         y2="1435.5601"
         x2="2017.9301"
         y1="1511.42"
         x1="2019.62"
         gradientUnits="userSpaceOnUse"
         id="id3"><stop
           id="stop18"
           style="stop-opacity:1; stop-color:white"
           offset="0" /><stop
           id="stop20"
           style="stop-opacity:0; stop-color:white"
           offset="1" /></linearGradient><rect
         id="rect22"
         height="92.704697"
         width="28.4016"
         y="1427"
         x="2005"
         style="fill:url(#id3)" /></mask><mask
       id="id4"><linearGradient
         y2="2568.6899"
         x2="2024.2"
         y1="2644.8301"
         x1="2025.9"
         gradientUnits="userSpaceOnUse"
         id="id5"><stop
           id="stop26"
           style="stop-opacity:1; stop-color:white"
           offset="0" /><stop
           id="stop28"
           style="stop-opacity:0; stop-color:white"
           offset="1" /></linearGradient><rect
         id="rect30"
         height="92.704697"
         width="43.354301"
         y="2560"
         x="2003"
         style="fill:url(#id5)" /></mask><mask
       id="id6"><linearGradient
         y2="2074.76"
         x2="2011.1899"
         y1="2140.28"
         x1="2015.34"
         gradientUnits="userSpaceOnUse"
         id="id7"><stop
           id="stop34"
           style="stop-opacity:1; stop-color:white"
           offset="0" /><stop
           id="stop36"
           style="stop-opacity:0; stop-color:white"
           offset="1" /></linearGradient><rect
         id="rect38"
         height="92.704697"
         width="19.7756"
         y="2061"
         x="2003"
         style="fill:url(#id7)" /></mask><mask
       id="id8"><linearGradient
         y2="1440.85"
         x2="2009.76"
         y1="1506.13"
         x1="2013.89"
         gradientUnits="userSpaceOnUse"
         id="id9"><stop
           id="stop42"
           style="stop-opacity:1; stop-color:white"
           offset="0" /><stop
           id="stop44"
           style="stop-opacity:0; stop-color:white"
           offset="1" /></linearGradient><rect
         id="rect46"
         height="92.704697"
         width="14.5079"
         y="1427"
         x="2005"
         style="fill:url(#id9)" /></mask><mask
       id="id10"><linearGradient
         y2="2574"
         x2="2011.1899"
         y1="2639.52"
         x1="2015.34"
         gradientUnits="userSpaceOnUse"
         id="id11"><stop
           id="stop50"
           style="stop-opacity:1; stop-color:white"
           offset="0" /><stop
           id="stop52"
           style="stop-opacity:0; stop-color:white"
           offset="1" /></linearGradient><rect
         id="rect54"
         height="92.704697"
         width="19.7756"
         y="2560"
         x="2003"
         style="fill:url(#id11)" /></mask><mask
       id="id12"><linearGradient
         y2="2087.8101"
         x2="2006.67"
         y1="2123.3601"
         x1="2012.1"
         gradientUnits="userSpaceOnUse"
         id="id13"><stop
           id="stop58"
           style="stop-opacity:1; stop-color:white"
           offset="0" /><stop
           id="stop60"
           style="stop-opacity:0; stop-color:white"
           offset="1" /></linearGradient><rect
         id="rect62"
         height="88.842499"
         width="12.0197"
         y="2061"
         x="2003"
         style="fill:url(#id13)" /></mask><mask
       id="id14"><linearGradient
         y2="1453.85"
         x2="2006.83"
         y1="1489.26"
         x1="2012.25"
         gradientUnits="userSpaceOnUse"
         id="id15"><stop
           id="stop66"
           style="stop-opacity:1; stop-color:white"
           offset="0" /><stop
           id="stop68"
           style="stop-opacity:0; stop-color:white"
           offset="1" /></linearGradient><rect
         id="rect70"
         height="88.842499"
         width="9.9330702"
         y="1427"
         x="2005"
         style="fill:url(#id15)" /></mask><mask
       id="id16"><linearGradient
         y2="2587.05"
         x2="2006.67"
         y1="2622.6001"
         x1="2012.1"
         gradientUnits="userSpaceOnUse"
         id="id17"><stop
           id="stop74"
           style="stop-opacity:1; stop-color:white"
           offset="0" /><stop
           id="stop76"
           style="stop-opacity:0; stop-color:white"
           offset="1" /></linearGradient><rect
         id="rect78"
         height="88.842499"
         width="12.0197"
         y="2560"
         x="2003"
         style="fill:url(#id17)" /></mask><mask
       id="id18"><linearGradient
         y2="1822.13"
         x2="2024.22"
         y1="1748.1801"
         x1="2025.88"
         gradientUnits="userSpaceOnUse"
         id="id19"><stop
           id="stop82"
           style="stop-opacity:1; stop-color:white"
           offset="0" /><stop
           id="stop84"
           style="stop-opacity:0; stop-color:white"
           offset="1" /></linearGradient><rect
         id="rect86"
         height="90.208702"
         width="43.354301"
         y="1740"
         x="2003"
         style="fill:url(#id19)" /></mask><mask
       id="id20"><linearGradient
         y2="1387.65"
         x2="2017.95"
         y1="1313.99"
         x1="2019.59"
         gradientUnits="userSpaceOnUse"
         id="id21"><stop
           id="stop90"
           style="stop-opacity:1; stop-color:white"
           offset="0" /><stop
           id="stop92"
           style="stop-opacity:0; stop-color:white"
           offset="1" /></linearGradient><rect
         id="rect94"
         height="90.208702"
         width="28.4016"
         y="1306"
         x="2005"
         style="fill:url(#id21)" /></mask><mask
       id="id22"><linearGradient
         y2="2321.3701"
         x2="2024.22"
         y1="2247.4099"
         x1="2025.88"
         gradientUnits="userSpaceOnUse"
         id="id23"><stop
           id="stop98"
           style="stop-opacity:1; stop-color:white"
           offset="0" /><stop
           id="stop100"
           style="stop-opacity:0; stop-color:white"
           offset="1" /></linearGradient><rect
         id="rect102"
         height="90.212601"
         width="43.354301"
         y="2239"
         x="2003"
         style="fill:url(#id23)" /></mask><mask
       id="id24"><linearGradient
         y2="1816.98"
         x2="2011.25"
         y1="1753.33"
         x1="2015.28"
         gradientUnits="userSpaceOnUse"
         id="id25"><stop
           id="stop106"
           style="stop-opacity:1; stop-color:white"
           offset="0" /><stop
           id="stop108"
           style="stop-opacity:0; stop-color:white"
           offset="1" /></linearGradient><rect
         id="rect110"
         height="90.208702"
         width="19.7756"
         y="1740"
         x="2003"
         style="fill:url(#id25)" /></mask><mask
       id="id26"><linearGradient
         y2="1382.52"
         x2="2009.8199"
         y1="1319.12"
         x1="2013.83"
         gradientUnits="userSpaceOnUse"
         id="id27"><stop
           id="stop114"
           style="stop-opacity:1; stop-color:white"
           offset="0" /><stop
           id="stop116"
           style="stop-opacity:0; stop-color:white"
           offset="1" /></linearGradient><rect
         id="rect118"
         height="90.208702"
         width="14.5079"
         y="1306"
         x="2005"
         style="fill:url(#id27)" /></mask><mask
       id="id28"><linearGradient
         y2="2316.21"
         x2="2011.25"
         y1="2252.5701"
         x1="2015.28"
         gradientUnits="userSpaceOnUse"
         id="id29"><stop
           id="stop122-0"
           style="stop-opacity:1; stop-color:white"
           offset="0" /><stop
           id="stop124-7"
           style="stop-opacity:0; stop-color:white"
           offset="1" /></linearGradient><rect
         id="rect126"
         height="90.212601"
         width="19.7756"
         y="2239"
         x="2003"
         style="fill:url(#id29)" /></mask><mask
       id="id30"><linearGradient
         y2="1804.3199"
         x2="2006.75"
         y1="1769.85"
         x1="2012.02"
         gradientUnits="userSpaceOnUse"
         id="id31"><stop
           id="stop130-2"
           style="stop-opacity:1; stop-color:white"
           offset="0" /><stop
           id="stop132-9"
           style="stop-opacity:0; stop-color:white"
           offset="1" /></linearGradient><rect
         id="rect134"
         height="86.346497"
         width="12.0197"
         y="1744"
         x="2003"
         style="fill:url(#id31)" /></mask><mask
       id="id32"><linearGradient
         y2="1369.91"
         x2="2006.91"
         y1="1335.58"
         x1="2012.17"
         gradientUnits="userSpaceOnUse"
         id="id33"><stop
           id="stop138"
           style="stop-opacity:1; stop-color:white"
           offset="0" /><stop
           id="stop140"
           style="stop-opacity:0; stop-color:white"
           offset="1" /></linearGradient><rect
         id="rect142"
         height="86.346497"
         width="9.9330702"
         y="1310"
         x="2005"
         style="fill:url(#id33)" /></mask><mask
       id="id34"><linearGradient
         y2="2303.5601"
         x2="2006.75"
         y1="2269.0901"
         x1="2012.02"
         gradientUnits="userSpaceOnUse"
         id="id35"><stop
           id="stop146"
           style="stop-opacity:1; stop-color:white"
           offset="0" /><stop
           id="stop148"
           style="stop-opacity:0; stop-color:white"
           offset="1" /></linearGradient><rect
         id="rect150"
         height="86.346497"
         width="12.0197"
         y="2243"
         x="2003"
         style="fill:url(#id35)" /></mask><mask
       id="id36"><linearGradient
         y2="2069.48"
         x2="5051.3701"
         y1="2145.5601"
         x1="5049.6699"
         gradientUnits="userSpaceOnUse"
         id="id37"><stop
           id="stop154"
           style="stop-opacity:1; stop-color:white"
           offset="0" /><stop
           id="stop156"
           style="stop-opacity:0; stop-color:white"
           offset="1" /></linearGradient><rect
         id="rect158-1"
         height="92.704697"
         width="39.409401"
         y="2061"
         x="5031"
         style="fill:url(#id37)" /></mask><mask
       id="id38"><linearGradient
         y2="2074.79"
         x2="5063.1099"
         y1="2140.25"
         x1="5058.96"
         gradientUnits="userSpaceOnUse"
         id="id39"><stop
           id="stop162"
           style="stop-opacity:1; stop-color:white"
           offset="0" /><stop
           id="stop164"
           style="stop-opacity:0; stop-color:white"
           offset="1" /></linearGradient><rect
         id="rect166"
         height="92.704697"
         width="18.385799"
         y="2061"
         x="5052"
         style="fill:url(#id39)" /></mask><mask
       id="id40"><linearGradient
         y2="2087.8301"
         x2="5067.2002"
         y1="2123.3401"
         x1="5061.7798"
         gradientUnits="userSpaceOnUse"
         id="id41"><stop
           id="stop170"
           style="stop-opacity:1; stop-color:white"
           offset="0" /><stop
           id="stop172"
           style="stop-opacity:0; stop-color:white"
           offset="1" /></linearGradient><rect
         id="rect174"
         height="88.842499"
         width="11.4724"
         y="2061"
         x="5059"
         style="fill:url(#id41)" /></mask><mask
       id="id42"><linearGradient
         y2="1822.09"
         x2="5051.3501"
         y1="1748.22"
         x1="5049.7002"
         gradientUnits="userSpaceOnUse"
         id="id43"><stop
           id="stop178"
           style="stop-opacity:1; stop-color:white"
           offset="0" /><stop
           id="stop180"
           style="stop-opacity:0; stop-color:white"
           offset="1" /></linearGradient><rect
         id="rect182"
         height="90.208702"
         width="39.409401"
         y="1740"
         x="5031"
         style="fill:url(#id43)" /></mask><mask
       id="id44"><linearGradient
         y2="1816.9399"
         x2="5063.0498"
         y1="1753.36"
         x1="5059.02"
         gradientUnits="userSpaceOnUse"
         id="id45"><stop
           id="stop186"
           style="stop-opacity:1; stop-color:white"
           offset="0" /><stop
           id="stop188"
           style="stop-opacity:0; stop-color:white"
           offset="1" /></linearGradient><rect
         id="rect190"
         height="90.208702"
         width="18.385799"
         y="1740"
         x="5052"
         style="fill:url(#id45)" /></mask><mask
       id="id46"><linearGradient
         y2="1804.3"
         x2="5067.1201"
         y1="1769.87"
         x1="5061.8599"
         gradientUnits="userSpaceOnUse"
         id="id47"><stop
           id="stop194"
           style="stop-opacity:1; stop-color:white"
           offset="0" /><stop
           id="stop196"
           style="stop-opacity:0; stop-color:white"
           offset="1" /></linearGradient><rect
         id="rect198"
         height="86.346497"
         width="11.4724"
         y="1744"
         x="5059"
         style="fill:url(#id47)" /></mask><defs
       id="defs113"><path
         id="SVGID_3_"
         d="m 548,521.5 c 0,9.665 7.835,17.5 17.5,17.5 9.665,0 17.5,-7.835 17.5,-17.5 0,-9.665 -7.835,-17.5 -17.5,-17.5 -9.665,0 -17.5,7.835 -17.5,17.5"
         inkscape:connector-curvature="0" /></defs><clipPath
       id="SVGID_4_"><use
         xlink:href="#SVGID_3_"
         overflow="visible"
         id="use117"
         style="overflow:visible"
         x="0"
         y="0"
         width="100%"
         height="100%" /></clipPath><linearGradient
       id="SVGID_5_"
       gradientUnits="userSpaceOnUse"
       x1="0"
       y1="600.00098"
       x2="1"
       y2="600.00098"
       gradientTransform="matrix(-17.5029,-30.316,-30.316,17.5029,18763.84,-9965.1025)"><stop
         offset="0"
         style="stop-color:#1D1D1F"
         id="stop120" /><stop
         offset="0.0746"
         style="stop-color:#28292C"
         id="stop122" /><stop
         offset="0.2372"
         style="stop-color:#3D3F43"
         id="stop124" /><stop
         offset="0.34"
         style="stop-color:#44474B"
         id="stop126" /><stop
         offset="0.635"
         style="stop-color:#44474B"
         id="stop128" /><stop
         offset="0.7664"
         style="stop-color:#393B3F"
         id="stop130" /><stop
         offset="1"
         style="stop-color:#1D1D1F"
         id="stop132" /></linearGradient><linearGradient
       gradientUnits="userSpaceOnUse"
       y2="437.59375"
       x2="296.99792"
       y1="6.3222642"
       x1="283.38687"
       id="linearGradient6723"
       xlink:href="#linearGradient6717"
       inkscape:collect="always" /><filter
       height="2.6817989"
       y="-0.84089944"
       width="1.0664208"
       x="-0.033210412"
       id="filter6881"
       style="color-interpolation-filters:sRGB"
       inkscape:collect="always"><feGaussianBlur
         id="feGaussianBlur6883"
         stdDeviation="5.8417652"
         inkscape:collect="always" /></filter></defs><rect
     transform="matrix(0.96200181,0,0,1.0212259,10.920192,-18.484279)"
     ry="8.3364525"
     rx="14.825542"
     y="862.50049"
     x="11.173923"
     height="16.672905"
     width="422.16388"
     id="rect6725"
     style="color:#000000;display:inline;overflow:visible;visibility:visible;opacity:0.95;fill:#000000;fill-opacity:1;fill-rule:nonzero;stroke:none;stroke-width:2.6400001;stroke-linecap:butt;stroke-linejoin:round;stroke-miterlimit:4;stroke-dasharray:none;stroke-dashoffset:0;stroke-opacity:1;marker:none;marker-start:none;marker-mid:none;marker-end:none;filter:url(#filter6881);enable-background:accumulate" /><path
     transform="matrix(1.9454647,0,0,1.9454647,-876.13399,-200.38286)"
     clip-path="url(#SVGID_2_)"
     d="m 673.165,197.959 0,29.681 c 0,0.53 0.382,0.959 0.851,0.959 l 1.134,0 c 0.47,0 0.851,-0.429 0.851,-0.959 l 0,-29.681 c 0,-0.53 -0.381,-0.96 -0.851,-0.96 l -1.134,0 c -0.469,0.001 -0.851,0.431 -0.851,0.96"
     id="path95"
     inkscape:connector-curvature="0"
     style="fill:#b6b4ba" /><rect
     transform="matrix(1.9454647,0,0,1.9454647,-876.13399,-200.38286)"
     x="671"
     y="509"
     clip-path="url(#SVGID_2_)"
     width="3"
     height="7.8439999"
     id="rect97"
     style="fill:#bcbcbc" /><rect
     transform="matrix(1.9454647,0,0,1.9454647,-876.13399,-200.38286)"
     x="671"
     y="135"
     clip-path="url(#SVGID_2_)"
     width="3"
     height="7.8439999"
     id="rect99"
     style="fill:#bcbcbc" /><rect
     transform="matrix(1.9454647,0,0,1.9454647,-876.13399,-200.38286)"
     x="671"
     y="511"
     clip-path="url(#SVGID_2_)"
     width="3"
     height="7.8439999"
     id="rect101"
     style="fill:#c4c2c7" /><rect
     transform="matrix(1.9454647,0,0,1.9454647,-876.13399,-200.38286)"
     x="671"
     y="137"
     clip-path="url(#SVGID_2_)"
     width="3"
     height="7.8439999"
     id="rect103"
     style="fill:#c4c2c7" /><path
     transform="matrix(1.9454647,0,0,1.9454647,-876.13399,-200.38286)"
     clip-path="url(#SVGID_2_)"
     d="m 641.603,103 -152.775,0 C 471.249,103 457,117.323 457,134.991 l 0,383.892 c 0,17.668 14.249,31.991 31.828,31.991 l 152.774,0 c 17.578,0 31.828,-14.323 32.397,-31.991 l 0,-383.892 C 673.431,117.323 659.181,103 641.603,103 m 27.151,413.534 c 0,15.901 -12.825,28.792 -28.646,28.792 l -149.591,0 c -15.82,0 -28.646,-12.891 -28.646,-28.792 l 0,-380.693 c 0,-15.901 12.825,-28.792 28.646,-28.792 l 149.592,0 c 15.82,0 28.646,12.891 28.646,28.792 l 0,380.693 z"
     id="path105"
     inkscape:connector-curvature="0"
     style="fill:#555753" /><path
     transform="matrix(1.9454647,0,0,1.9454647,-876.13399,-200.38286)"
     clip-path="url(#SVGID_2_)"
     d="m 639.819,547.955 -149.535,0 c -16.596,0 -30.048,-13.453 -30.048,-30.048 l 0,-381.859 c 0,-16.595 13.452,-30.048 30.048,-30.048 l 149.535,0 C 657.04,106 671,119.961 671,137.181 l 0,379.593 c 0,17.221 -13.96,31.181 -31.181,31.181"
     id="path107"
     inkscape:connector-curvature="0"
     style="fill:#080808" /><polygon
     transform="matrix(1.9454647,0,0,1.9454647,-876.13399,-200.38286)"
     clip-path="url(#SVGID_4_)"
     points="532.845,512.75 574.25,488.845 598.155,530.25 556.75,554.155 "
     id="polygon134"
     style="fill:url(#SVGID_5_)" /><path
     transform="matrix(1.9454647,0,0,1.9454647,-876.13399,-200.38286)"
     clip-path="url(#SVGID_7_)"
     d="m 581,521.5 c 0,8.56 -6.94,15.5 -15.5,15.5 -8.561,0 -15.5,-6.94 -15.5,-15.5 0,-8.56 6.939,-15.5 15.5,-15.5 8.56,0 15.5,6.94 15.5,15.5"
     id="path144"
     inkscape:connector-curvature="0"
     style="fill:#080808" /><path
     transform="matrix(1.9454647,0,0,1.9454647,-876.13399,-200.38286)"
     clip-path="url(#SVGID_7_)"
     d="m 456,160.22 0,17.266 c 0,0.53 0.43,0.96 0.96,0.96 l 1.28,0 c 0.529,0 0.96,-0.43 0.96,-0.96 l 0,-17.266 c 0,-0.53 -0.431,-0.96 -0.96,-0.96 l -1.28,0 c -0.53,0 -0.96,0.429 -0.96,0.96"
     id="path150"
     inkscape:connector-curvature="0"
     style="fill:#b6b4ba" /><path
     transform="matrix(1.9454647,0,0,1.9454647,-876.13399,-200.38286)"
     clip-path="url(#SVGID_7_)"
     d="m 456,199.72 0,30.809 c 0,0.53 0.43,0.96 0.96,0.96 l 1.28,0 c 0.529,0 0.96,-0.43 0.96,-0.96 l 0,-30.809 c 0,-0.53 -0.431,-0.96 -0.96,-0.96 l -1.28,0 c -0.53,0 -0.96,0.429 -0.96,0.96"
     id="path152"
     inkscape:connector-curvature="0"
     style="fill:#b6b4ba" /><path
     transform="matrix(1.9454647,0,0,1.9454647,-876.13399,-200.38286)"
     clip-path="url(#SVGID_7_)"
     d="m 456,240.348 0,30.809 c 0,0.53 0.43,0.96 0.96,0.96 l 1.28,0 c 0.529,0 0.96,-0.43 0.96,-0.96 l 0,-30.809 c 0,-0.53 -0.431,-0.96 -0.96,-0.96 l -1.28,0 c -0.53,0 -0.96,0.43 -0.96,0.96"
     id="path154"
     inkscape:connector-curvature="0"
     style="fill:#b6b4ba" /><rect
     transform="matrix(1.9454647,0,0,1.9454647,-876.13399,-200.38286)"
     x="457"
     y="511"
     clip-path="url(#SVGID_7_)"
     width="3"
     height="7.8439999"
     id="rect156"
     style="fill:#c4c2c7" /><rect
     transform="matrix(1.9454647,0,0,1.9454647,-876.13399,-200.38286)"
     x="671"
     y="511"
     clip-path="url(#SVGID_7_)"
     width="3"
     height="7.8439999"
     id="rect158"
     style="fill:#c4c2c7" /><rect
     transform="matrix(1.9454647,0,0,1.9454647,-876.13399,-200.38286)"
     x="457"
     y="137"
     clip-path="url(#SVGID_7_)"
     width="3"
     height="7.8439999"
     id="rect160"
     style="fill:#c4c2c7" /><rect
     transform="matrix(1.9454647,0,0,1.9454647,-876.13399,-200.38286)"
     x="671"
     y="137"
     clip-path="url(#SVGID_7_)"
     width="3"
     height="7.8439999"
     id="rect162"
     style="fill:#c4c2c7" /><rect
     ry="8.5325623"
     rx="8.4837427"
     y="798.71167"
     x="209.17967"
     height="30.930672"
     width="29.693233"
     id="rect6433"
     style="color:#000000;display:inline;overflow:visible;visibility:visible;opacity:0.58;fill:none;fill-opacity:1;fill-rule:nonzero;stroke:#d3d7cf;stroke-width:2.00538254;stroke-linecap:butt;stroke-linejoin:round;stroke-miterlimit:4;stroke-dasharray:none;stroke-dashoffset:0;stroke-opacity:1;marker:none;marker-start:none;marker-mid:none;marker-end:none;enable-background:accumulate" /><path
     sodipodi:nodetypes="czcc"
     inkscape:connector-curvature="0"
     id="path6552"
     d="m 190.89389,807.08429 c -3.8275,15.32776 6.44715,40.96319 32.81217,40.96319 26.36503,0 37.45103,-25.01173 33.70953,-40.85515 -27.73123,6.59906 -38.67657,6.53803 -66.5217,-0.10804 z"
     style="color:#000000;display:inline;overflow:visible;visibility:visible;opacity:0.2;fill:#ffffff;fill-opacity:1;fill-rule:nonzero;stroke:none;stroke-width:2;stroke-linecap:butt;stroke-linejoin:round;stroke-miterlimit:4;stroke-dasharray:none;stroke-dashoffset:0;stroke-opacity:1;marker:none;marker-start:none;marker-mid:none;marker-end:none;enable-background:accumulate" /><g
     id="g38431"><rect
       y="107.40537"
       x="36.755836"
       height="653.40961"
       width="374.84091"
       id="rect7083"
       style="color:#000000;display:inline;overflow:visible;visibility:visible;opacity:1;fill:#ef2929;fill-opacity:1;fill-rule:nonzero;stroke:none;stroke-width:2.6400001;stroke-linecap:butt;stroke-linejoin:round;stroke-miterlimit:4;stroke-dasharray:none;stroke-dashoffset:0;stroke-opacity:1;marker:none;marker-start:none;marker-mid:none;marker-end:none;enable-background:accumulate" /><g
       id="text38374"
       style="font-style:normal;font-weight:normal;font-size:52.10604095px;line-height:125%;font-family:Sans;letter-spacing:0px;word-spacing:0px;fill:#ffffff;fill-opacity:1;stroke:none;stroke-width:1px;stroke-linecap:butt;stroke-linejoin:miter;stroke-opacity:1"><path
         id="path38395"
         style="font-style:normal;font-variant:normal;font-weight:normal;font-stretch:normal;font-size:52.10604095px;line-height:125%;font-family:'Droid Sans';-inkscape-font-specification:'Droid Sans, Normal';text-align:center;writing-mode:lr-tb;text-anchor:middle;fill:#ffffff"
         d="m 170.27656,355.00974 4.80861,0 5.47012,15.59619 q 0.35619,1.0177 0.71238,2.13716 0.38164,1.11947 0.68695,2.23893 0.33075,1.11947 0.55973,2.16261 0.22898,1.04314 0.33075,1.93362 l 0.15266,0 q 0.12721,-0.63606 0.40708,-1.73008 0.27986,-1.09403 0.61061,-2.31526 0.3562,-1.24668 0.71239,-2.44247 0.38164,-1.1958 0.6615,-2.03539 l 5.06304,-15.54531 4.78317,0 -11.042,31.57402 q -0.71239,2.06083 -1.55199,3.68915 -0.81415,1.65375 -1.90818,2.79866 -1.09402,1.14491 -2.56968,1.75553 -1.47566,0.63606 -3.51105,0.63606 -1.32301,0 -2.28982,-0.15266 -0.96681,-0.12721 -1.65375,-0.27986 l 0,-3.68915 q 0.53429,0.12721 1.34844,0.20354 0.81416,0.10177 1.70465,0.10177 1.22123,0 2.11172,-0.30531 0.89048,-0.27987 1.55198,-0.8396 0.6615,-0.55973 1.11947,-1.37389 0.4834,-0.81416 0.86504,-1.8573 l 1.45022,-4.07078 -10.58404,-28.19018 z" /><path
         id="path38397"
         style="font-style:normal;font-variant:normal;font-weight:normal;font-stretch:normal;font-size:52.10604095px;line-height:125%;font-family:'Droid Sans';-inkscape-font-specification:'Droid Sans, Normal';text-align:center;writing-mode:lr-tb;text-anchor:middle;fill:#ffffff"
         d="m 222.66246,368.92673 q 0,3.48561 -0.86504,6.20795 -0.8396,2.69689 -2.44247,4.55419 -1.57743,1.83185 -3.8418,2.79866 -2.26438,0.96681 -5.08848,0.96681 -2.62057,0 -4.83406,-0.96681 -2.21349,-0.96681 -3.8418,-2.79866 -1.60287,-1.8573 -2.5188,-4.55419 -0.89048,-2.72234 -0.89048,-6.20795 0,-3.46017 0.8396,-6.13162 0.86504,-2.69689 2.44247,-4.52875 1.57742,-1.85729 3.8418,-2.79866 2.28981,-0.96681 5.11392,-0.96681 2.62057,0 4.83406,0.96681 2.21349,0.94137 3.81636,2.79866 1.62831,1.83186 2.5188,4.52875 0.91592,2.67145 0.91592,6.13162 z m -19.53976,0 q 0,5.31746 1.73008,8.01436 1.75553,2.67145 5.67366,2.67145 3.91813,0 5.62277,-2.67145 1.73008,-2.6969 1.73008,-8.01436 0,-5.31746 -1.75552,-7.93803 -1.73009,-2.64601 -5.64822,-2.64601 -3.91813,0 -5.64821,2.64601 -1.70464,2.62057 -1.70464,7.93803 z" /><path
         id="path38399"
         style="font-style:normal;font-variant:normal;font-weight:normal;font-stretch:normal;font-size:52.10604095px;line-height:125%;font-family:'Droid Sans';-inkscape-font-specification:'Droid Sans, Normal';text-align:center;writing-mode:lr-tb;text-anchor:middle;fill:#ffffff"
         d="m 248.10487,382.9455 -0.68695,-3.74004 -0.25442,0 q -0.63606,1.09403 -1.52655,1.90818 -0.86504,0.78872 -1.90818,1.32301 -1.04313,0.50885 -2.21349,0.76327 -1.17035,0.25442 -2.39158,0.25442 -2.31526,0 -4.07079,-0.58517 -1.75552,-0.58518 -2.92587,-1.83185 -1.17035,-1.24668 -1.78097,-3.1803 -0.58518,-1.93363 -0.58518,-4.60508 l 0,-18.2422 4.63052,0 0,17.98778 q 0,3.30751 1.34845,4.96126 1.34845,1.65376 4.17255,1.65376 2.06084,0 3.46017,-0.6615 1.39933,-0.6615 2.23893,-1.93362 0.86504,-1.29757 1.22124,-3.1803 0.38163,-1.88274 0.38163,-4.32521 l 0,-14.50217 4.63052,0 0,27.93576 -3.74003,0 z" /><path
         id="path38401"
         style="font-style:normal;font-variant:normal;font-weight:normal;font-stretch:normal;font-size:52.10604095px;line-height:125%;font-family:'Droid Sans';-inkscape-font-specification:'Droid Sans, Normal';text-align:center;writing-mode:lr-tb;text-anchor:middle;fill:#ffffff"
         d="m 272.83488,354.50089 q 0.73783,0 1.65376,0.0763 0.91592,0.0509 1.57743,0.17809 l -0.61062,4.27433 q -0.71239,-0.12722 -1.47566,-0.20354 -0.73783,-0.10177 -1.39933,-0.10177 -1.60287,0 -2.92588,0.6615 -1.323,0.63606 -2.28982,1.8573 -0.94136,1.19579 -1.47566,2.90043 -0.50884,1.6792 -0.50884,3.74003 l 0,15.06191 -4.63052,0 0,-27.93576 3.76547,0 0.55974,5.11392 0.20354,0 q 0.63606,-1.09402 1.34844,-2.11172 0.73783,-1.0177 1.62832,-1.78097 0.91592,-0.78871 2.03539,-1.24668 1.11947,-0.4834 2.54424,-0.4834 z" /><path
         id="path38403"
         style="font-style:normal;font-variant:normal;font-weight:normal;font-stretch:normal;font-size:52.10604095px;line-height:125%;font-family:'Droid Sans';-inkscape-font-specification:'Droid Sans, Normal';text-align:center;writing-mode:lr-tb;text-anchor:middle;fill:#ffffff"
         d="m 116.21145,440.41988 q 0,2.0354 -0.73783,3.56194 -0.73783,1.52654 -2.13716,2.56968 -1.37389,1.0177 -3.33296,1.52655 -1.95906,0.50884 -4.40153,0.50884 -2.77322,0 -4.75773,-0.45796 -1.984508,-0.43252 -3.48561,-1.29756 l 0,-4.22344 q 0.788715,0.40708 1.755526,0.81416 0.966814,0.38163 2.035394,0.68694 1.06858,0.30531 2.18804,0.50885 1.14491,0.1781 2.26438,0.1781 1.65375,0 2.79866,-0.27987 1.17035,-0.27987 1.88274,-0.78871 0.73783,-0.53429 1.06858,-1.27212 0.33075,-0.76328 0.33075,-1.6792 0,-0.78872 -0.25442,-1.42478 -0.25443,-0.63606 -0.94137,-1.24668 -0.6615,-0.63606 -1.83185,-1.27212 -1.17035,-0.63606 -3.00221,-1.42477 -1.83185,-0.78871 -3.30751,-1.55199 -1.45022,-0.76327 -2.467912,-1.70464 -1.017696,-0.94137 -1.577429,-2.1626 -0.53429,-1.24668 -0.53429,-2.95132 0,-1.78097 0.686944,-3.15486 0.712388,-1.39933 1.984507,-2.3407 1.27212,-0.94137 3.05309,-1.42477 1.78097,-0.48341 3.96901,-0.48341 2.46792,0 4.50331,0.53429 2.06083,0.53429 3.89269,1.39933 l -1.60287,3.74004 q -1.65376,-0.73783 -3.40929,-1.27212 -1.73008,-0.55974 -3.53649,-0.55974 -2.59513,0 -3.8418,0.86504 -1.24668,0.8396 -1.24668,2.41703 0,0.89049 0.27987,1.55199 0.3053,0.6615 1.01769,1.24668 0.71239,0.58517 1.90818,1.19579 1.19579,0.58518 2.97676,1.32301 1.83186,0.76327 3.25663,1.52654 1.45022,0.76327 2.46791,1.73008 1.0177,0.94137 1.55199,2.16261 0.53429,1.22123 0.53429,2.92587 z" /><path
         id="path38405"
         style="font-style:normal;font-variant:normal;font-weight:normal;font-stretch:normal;font-size:52.10604095px;line-height:125%;font-family:'Droid Sans';-inkscape-font-specification:'Droid Sans, Normal';text-align:center;writing-mode:lr-tb;text-anchor:middle;fill:#ffffff"
         d="m 133.69038,448.58689 q -2.56968,0 -4.80861,-0.78871 -2.23893,-0.81416 -3.89269,-2.54424 -1.65376,-1.75553 -2.59513,-4.45242 -0.94137,-2.72234 -0.94137,-6.5387 0,-3.99446 0.96682,-6.76768 0.96681,-2.79866 2.64601,-4.52874 1.70464,-1.75553 3.96901,-2.54425 2.26437,-0.78871 4.8595,-0.78871 1.98451,0 3.86725,0.43252 1.90818,0.43252 3.1803,1.06858 l -1.37389,3.91813 q -0.58518,-0.25442 -1.29757,-0.4834 -0.71238,-0.25443 -1.47566,-0.43252 -0.76327,-0.20354 -1.5011,-0.30531 -0.73783,-0.12722 -1.39933,-0.12722 -3.99446,0 -5.82631,2.56969 -1.83185,2.54424 -1.83185,7.93803 0,5.36834 1.83185,7.8617 1.85729,2.46791 5.62277,2.46791 2.06084,0 3.71459,-0.45796 1.6792,-0.48341 3.05309,-1.11947 l 0,4.12167 q -1.37389,0.73783 -2.95132,1.11947 -1.55199,0.38163 -3.81636,0.38163 z" /><path
         id="path38407"
         style="font-style:normal;font-variant:normal;font-weight:normal;font-stretch:normal;font-size:52.10604095px;line-height:125%;font-family:'Droid Sans';-inkscape-font-specification:'Droid Sans, Normal';text-align:center;writing-mode:lr-tb;text-anchor:middle;fill:#ffffff"
         d="m 159.20911,419.63344 q 0.73783,0 1.65376,0.0763 0.91592,0.0509 1.57743,0.17809 l -0.61062,4.27433 q -0.71239,-0.12721 -1.47566,-0.20354 -0.73783,-0.10177 -1.39933,-0.10177 -1.60287,0 -2.92588,0.6615 -1.323,0.63606 -2.28982,1.8573 -0.94136,1.19579 -1.47566,2.90043 -0.50884,1.6792 -0.50884,3.74003 l 0,15.06191 -4.63052,0 0,-27.93576 3.76548,0 0.55973,5.11392 0.20354,0 q 0.63606,-1.09402 1.34844,-2.11172 0.73783,-1.01769 1.62832,-1.78097 0.91592,-0.78871 2.03539,-1.24667 1.11947,-0.48341 2.54424,-0.48341 z" /><path
         id="path38409"
         style="font-style:normal;font-variant:normal;font-weight:normal;font-stretch:normal;font-size:52.10604095px;line-height:125%;font-family:'Droid Sans';-inkscape-font-specification:'Droid Sans, Normal';text-align:center;writing-mode:lr-tb;text-anchor:middle;fill:#ffffff"
         d="m 178.92697,448.58689 q -2.79866,0 -5.11392,-0.94136 -2.31526,-0.94137 -3.99446,-2.74778 -1.65376,-1.80641 -2.56968,-4.47787 -0.91593,-2.67145 -0.91593,-6.10617 0,-3.46017 0.8396,-6.18251 0.8396,-2.72233 2.36614,-4.60507 1.52655,-1.90818 3.63827,-2.90044 2.13716,-0.99225 4.70684,-0.99225 2.5188,0 4.52875,0.91593 2.00995,0.89048 3.40928,2.54424 1.39933,1.62831 2.13716,3.94357 0.76328,2.28982 0.76328,5.08848 l 0,2.87499 -17.60615,0 q 0.12721,4.91039 2.06084,7.22564 1.95906,2.31526 5.80086,2.31526 1.29757,0 2.39159,-0.12721 1.11947,-0.12721 2.13716,-0.35619 1.04314,-0.25443 2.00995,-0.61062 0.96681,-0.38164 1.95907,-0.8396 l 0,4.12167 q -1.0177,0.48341 -2.00995,0.8396 -0.96681,0.35619 -2.00995,0.58517 -1.0177,0.22899 -2.13716,0.33076 -1.09403,0.10176 -2.39159,0.10176 z m -1.14491,-25.11165 q -2.90043,0 -4.60507,1.98451 -1.6792,1.98451 -1.95907,5.77543 l 12.51766,0 q 0,-1.73009 -0.35619,-3.15486 -0.33075,-1.45022 -1.06858,-2.46791 -0.71239,-1.0177 -1.83185,-1.57743 -1.11947,-0.55974 -2.6969,-0.55974 z" /><path
         id="path38411"
         style="font-style:normal;font-variant:normal;font-weight:normal;font-stretch:normal;font-size:52.10604095px;line-height:125%;font-family:'Droid Sans';-inkscape-font-specification:'Droid Sans, Normal';text-align:center;writing-mode:lr-tb;text-anchor:middle;fill:#ffffff"
         d="m 206.81185,448.58689 q -2.79866,0 -5.11392,-0.94136 -2.31526,-0.94137 -3.99446,-2.74778 -1.65376,-1.80641 -2.56968,-4.47787 -0.91593,-2.67145 -0.91593,-6.10617 0,-3.46017 0.8396,-6.18251 0.8396,-2.72233 2.36614,-4.60507 1.52655,-1.90818 3.63827,-2.90044 2.13716,-0.99225 4.70684,-0.99225 2.5188,0 4.52875,0.91593 2.00995,0.89048 3.40928,2.54424 1.39933,1.62831 2.13716,3.94357 0.76328,2.28982 0.76328,5.08848 l 0,2.87499 -17.60615,0 q 0.12721,4.91039 2.06084,7.22564 1.95906,2.31526 5.80087,2.31526 1.29756,0 2.39158,-0.12721 1.11947,-0.12721 2.13716,-0.35619 1.04314,-0.25443 2.00995,-0.61062 0.96681,-0.38164 1.95907,-0.8396 l 0,4.12167 q -1.0177,0.48341 -2.00995,0.8396 -0.96681,0.35619 -2.00995,0.58517 -1.0177,0.22899 -2.13716,0.33076 -1.09403,0.10176 -2.39159,0.10176 z m -1.14491,-25.11165 q -2.90043,0 -4.60507,1.98451 -1.6792,1.98451 -1.95907,5.77543 l 12.51766,0 q 0,-1.73009 -0.35619,-3.15486 -0.33075,-1.45022 -1.06858,-2.46791 -0.71239,-1.0177 -1.83185,-1.57743 -1.11947,-0.55974 -2.6969,-0.55974 z" /><path
         id="path38413"
         style="font-style:normal;font-variant:normal;font-weight:normal;font-stretch:normal;font-size:52.10604095px;line-height:125%;font-family:'Droid Sans';-inkscape-font-specification:'Droid Sans, Normal';text-align:center;writing-mode:lr-tb;text-anchor:middle;fill:#ffffff"
         d="m 241.10821,448.07805 0,-17.98778 q 0,-3.30751 -1.34845,-4.96127 -1.323,-1.65376 -4.17255,-1.65376 -2.06084,0 -3.46017,0.66151 -1.39933,0.6615 -2.26437,1.95906 -0.8396,1.29756 -1.22124,3.1803 -0.35619,1.88274 -0.35619,4.32521 l 0,14.47673 -4.63052,0 0,-27.93576 3.76548,0 0.6615,3.76547 0.25442,0 q 0.63606,-1.09402 1.5011,-1.88273 0.89049,-0.81416 1.93363,-1.34845 1.04313,-0.53429 2.21349,-0.78872 1.17035,-0.25442 2.39158,-0.25442 4.65596,0 6.99666,2.44247 2.36615,2.41703 2.36615,7.75993 l 0,18.24221 -4.63052,0 z" /><path
         id="path38415"
         style="font-style:normal;font-variant:normal;font-weight:normal;font-stretch:normal;font-size:52.10604095px;line-height:125%;font-family:'Droid Sans';-inkscape-font-specification:'Droid Sans, Normal';text-align:center;writing-mode:lr-tb;text-anchor:middle;fill:#ffffff"
         d="m 271.10481,440.41988 q 0,2.0354 -0.73783,3.56194 -0.73783,1.52654 -2.13716,2.56968 -1.37389,1.0177 -3.33296,1.52655 -1.95906,0.50884 -4.40154,0.50884 -2.77322,0 -4.75772,-0.45796 -1.98451,-0.43252 -3.48561,-1.29756 l 0,-4.22344 q 0.78871,0.40708 1.75552,0.81416 0.96681,0.38163 2.03539,0.68694 1.06859,0.30531 2.18805,0.50885 1.14491,0.1781 2.26437,0.1781 1.65376,0 2.79867,-0.27987 1.17035,-0.27987 1.88274,-0.78871 0.73783,-0.53429 1.06858,-1.27212 0.33075,-0.76328 0.33075,-1.6792 0,-0.78872 -0.25442,-1.42478 -0.25443,-0.63606 -0.94137,-1.24668 -0.66151,-0.63606 -1.83186,-1.27212 -1.17035,-0.63606 -3.0022,-1.42477 -1.83185,-0.78871 -3.30751,-1.55199 -1.45022,-0.76327 -2.46792,-1.70464 -1.01769,-0.94137 -1.57742,-2.1626 -0.5343,-1.24668 -0.5343,-2.95132 0,-1.78097 0.68695,-3.15486 0.71239,-1.39933 1.98451,-2.3407 1.27212,-0.94137 3.05309,-1.42477 1.78096,-0.48341 3.96901,-0.48341 2.46791,0 4.50331,0.53429 2.06083,0.53429 3.89268,1.39933 l -1.60287,3.74004 q -1.65375,-0.73783 -3.40928,-1.27212 -1.73008,-0.55974 -3.53649,-0.55974 -2.59513,0 -3.84181,0.86504 -1.24667,0.8396 -1.24667,2.41703 0,0.89049 0.27986,1.55199 0.30531,0.6615 1.0177,1.24668 0.71239,0.58517 1.90818,1.19579 1.19579,0.58518 2.97676,1.32301 1.83185,0.76327 3.25663,1.52654 1.45021,0.76327 2.46791,1.73008 1.0177,0.94137 1.55199,2.16261 0.53429,1.22123 0.53429,2.92587 z" /><path
         id="path38417"
         style="font-style:normal;font-variant:normal;font-weight:normal;font-stretch:normal;font-size:52.10604095px;line-height:125%;font-family:'Droid Sans';-inkscape-font-specification:'Droid Sans, Normal';text-align:center;writing-mode:lr-tb;text-anchor:middle;fill:#ffffff"
         d="m 295.35141,448.07805 0,-17.98778 q 0,-3.30751 -1.34845,-4.96127 -1.323,-1.65376 -4.17255,-1.65376 -2.06084,0 -3.46017,0.66151 -1.39933,0.6615 -2.26437,1.95906 -0.8396,1.29756 -1.22124,3.1803 -0.35619,1.88274 -0.35619,4.32521 l 0,14.47673 -4.63052,0 0,-39.58838 4.63052,0 0,11.75439 -0.20354,3.6637 0.25442,0 q 0.63606,-1.09402 1.50111,-1.88273 0.89048,-0.81416 1.93362,-1.34845 1.04314,-0.53429 2.21349,-0.78872 1.17035,-0.25442 2.39158,-0.25442 4.65596,0 6.99666,2.44247 2.36615,2.41703 2.36615,7.75993 l 0,18.24221 -4.63052,0 z" /><path
         id="path38419"
         style="font-style:normal;font-variant:normal;font-weight:normal;font-stretch:normal;font-size:52.10604095px;line-height:125%;font-family:'Droid Sans';-inkscape-font-specification:'Droid Sans, Normal';text-align:center;writing-mode:lr-tb;text-anchor:middle;fill:#ffffff"
         d="m 331.40329,434.05928 q 0,3.48561 -0.86504,6.20795 -0.8396,2.69689 -2.44247,4.55419 -1.57743,1.83185 -3.8418,2.79866 -2.26438,0.96681 -5.08848,0.96681 -2.62057,0 -4.83406,-0.96681 -2.21349,-0.96681 -3.8418,-2.79866 -1.60287,-1.8573 -2.5188,-4.55419 -0.89048,-2.72234 -0.89048,-6.20795 0,-3.46016 0.8396,-6.13162 0.86504,-2.69689 2.44247,-4.52874 1.57743,-1.8573 3.8418,-2.79867 2.28982,-0.96681 5.11392,-0.96681 2.62057,0 4.83406,0.96681 2.21349,0.94137 3.81636,2.79867 1.62831,1.83185 2.5188,4.52874 0.91592,2.67146 0.91592,6.13162 z m -19.53976,0 q 0,5.31747 1.73008,8.01436 1.75553,2.67145 5.67366,2.67145 3.91813,0 5.62277,-2.67145 1.73008,-2.69689 1.73008,-8.01436 0,-5.31746 -1.75552,-7.93803 -1.73009,-2.64601 -5.64822,-2.64601 -3.91813,0 -5.64821,2.64601 -1.70464,2.62057 -1.70464,7.93803 z" /><path
         id="path38421"
         style="font-style:normal;font-variant:normal;font-weight:normal;font-stretch:normal;font-size:52.10604095px;line-height:125%;font-family:'Droid Sans';-inkscape-font-specification:'Droid Sans, Normal';text-align:center;writing-mode:lr-tb;text-anchor:middle;fill:#ffffff"
         d="m 347.20303,444.79598 q 0.45796,0 1.0177,-0.0509 0.58517,-0.0509 1.11946,-0.12721 0.53429,-0.0763 0.96681,-0.1781 0.45797,-0.10177 0.68695,-0.17809 l 0,3.51105 q -0.33075,0.15265 -0.8396,0.30531 -0.50885,0.15265 -1.11947,0.25442 -0.61061,0.12721 -1.27212,0.1781 -0.6615,0.0763 -1.29756,0.0763 -1.57743,0 -2.92588,-0.40707 -1.34844,-0.40708 -2.3407,-1.39934 -0.96681,-0.99225 -1.52654,-2.67145 -0.55973,-1.70464 -0.55973,-4.27432 l 0,-16.20681 -3.94358,0 0,-2.06084 3.94358,-1.9845 1.9845,-5.85176 2.67146,0 0,6.41149 7.0221,0 0,3.48561 -7.0221,0 0,16.20681 q 0,2.46791 0.78871,3.71459 0.81416,1.24668 2.64601,1.24668 z" /><path
         id="path38423"
         style="font-style:normal;font-variant:normal;font-weight:normal;font-stretch:normal;font-size:52.10604095px;line-height:125%;font-family:'Droid Sans';-inkscape-font-specification:'Droid Sans, Normal';text-align:center;writing-mode:lr-tb;text-anchor:middle;fill:#ffffff"
         d="m 191.80083,513.2106 0,-17.98778 q 0,-3.30751 -1.34845,-4.96127 -1.323,-1.65376 -4.17255,-1.65376 -2.06084,0 -3.46017,0.66151 -1.39933,0.6615 -2.26437,1.95906 -0.8396,1.29756 -1.22124,3.1803 -0.35619,1.88274 -0.35619,4.32521 l 0,14.47673 -4.63052,0 0,-39.58838 4.63052,0 0,11.75439 -0.20354,3.66371 0.25442,0 q 0.63606,-1.09403 1.5011,-1.88274 0.89049,-0.81416 1.93363,-1.34845 1.04314,-0.53429 2.21349,-0.78871 1.17035,-0.25443 2.39158,-0.25443 4.65596,0 6.99666,2.44247 2.36615,2.41703 2.36615,7.75994 l 0,18.2422 -4.63052,0 z" /><path
         id="path38425"
         style="font-style:normal;font-variant:normal;font-weight:normal;font-stretch:normal;font-size:52.10604095px;line-height:125%;font-family:'Droid Sans';-inkscape-font-specification:'Droid Sans, Normal';text-align:center;writing-mode:lr-tb;text-anchor:middle;fill:#ffffff"
         d="m 216.12377,513.71945 q -2.79867,0 -5.11393,-0.94137 -2.31526,-0.94137 -3.99445,-2.74778 -1.65376,-1.80641 -2.56969,-4.47787 -0.91592,-2.67145 -0.91592,-6.10617 0,-3.46017 0.8396,-6.18251 0.8396,-2.72233 2.36614,-4.60507 1.52654,-1.90818 3.63826,-2.90043 2.13717,-0.99226 4.70685,-0.99226 2.5188,0 4.52875,0.91593 2.00995,0.89048 3.40928,2.54424 1.39933,1.62831 2.13716,3.94357 0.76327,2.28982 0.76327,5.08848 l 0,2.87499 -17.60614,0 q 0.12721,4.91039 2.06083,7.22565 1.95907,2.31525 5.80087,2.31525 1.29756,0 2.39159,-0.12721 1.11946,-0.12721 2.13716,-0.35619 1.04314,-0.25443 2.00995,-0.61062 0.96681,-0.38164 1.95906,-0.8396 l 0,4.12167 q -1.01769,0.48341 -2.00995,0.8396 -0.96681,0.35619 -2.00995,0.58518 -1.01769,0.22898 -2.13716,0.33075 -1.09402,0.10177 -2.39158,0.10177 z m -1.14491,-25.11166 q -2.90044,0 -4.60508,1.98451 -1.6792,1.98451 -1.95906,5.77543 l 12.51766,0 q 0,-1.73009 -0.35619,-3.15486 -0.33075,-1.45022 -1.06858,-2.46791 -0.71239,-1.0177 -1.83186,-1.57743 -1.11946,-0.55974 -2.69689,-0.55974 z" /><path
         id="path38427"
         style="font-style:normal;font-variant:normal;font-weight:normal;font-stretch:normal;font-size:52.10604095px;line-height:125%;font-family:'Droid Sans';-inkscape-font-specification:'Droid Sans, Normal';text-align:center;writing-mode:lr-tb;text-anchor:middle;fill:#ffffff"
         d="m 245.05178,484.76599 q 0.73783,0 1.65376,0.0763 0.91592,0.0509 1.57742,0.1781 l -0.61061,4.27432 q -0.71239,-0.12721 -1.47566,-0.20354 -0.73783,-0.10177 -1.39933,-0.10177 -1.60288,0 -2.92588,0.6615 -1.32301,0.63606 -2.28982,1.8573 -0.94137,1.19579 -1.47566,2.90043 -0.50884,1.6792 -0.50884,3.74004 l 0,15.0619 -4.63052,0 0,-27.93576 3.76547,0 0.55974,5.11392 0.20354,0 q 0.63606,-1.09402 1.34844,-2.11172 0.73783,-1.01769 1.62832,-1.78096 0.91592,-0.78872 2.03539,-1.24668 1.11946,-0.48341 2.54424,-0.48341 z" /><path
         id="path38429"
         style="font-style:normal;font-variant:normal;font-weight:normal;font-stretch:normal;font-size:52.10604095px;line-height:125%;font-family:'Droid Sans';-inkscape-font-specification:'Droid Sans, Normal';text-align:center;writing-mode:lr-tb;text-anchor:middle;fill:#ffffff"
         d="m 264.76964,513.71945 q -2.79867,0 -5.11392,-0.94137 -2.31526,-0.94137 -3.99446,-2.74778 -1.65376,-1.80641 -2.56968,-4.47787 -0.91593,-2.67145 -0.91593,-6.10617 0,-3.46017 0.8396,-6.18251 0.8396,-2.72233 2.36614,-4.60507 1.52655,-1.90818 3.63827,-2.90043 2.13716,-0.99226 4.70684,-0.99226 2.5188,0 4.52875,0.91593 2.00995,0.89048 3.40928,2.54424 1.39933,1.62831 2.13716,3.94357 0.76327,2.28982 0.76327,5.08848 l 0,2.87499 -17.60614,0 q 0.12721,4.91039 2.06084,7.22565 1.95906,2.31525 5.80086,2.31525 1.29757,0 2.39159,-0.12721 1.11946,-0.12721 2.13716,-0.35619 1.04314,-0.25443 2.00995,-0.61062 0.96681,-0.38164 1.95907,-0.8396 l 0,4.12167 q -1.0177,0.48341 -2.00995,0.8396 -0.96682,0.35619 -2.00995,0.58518 -1.0177,0.22898 -2.13717,0.33075 -1.09402,0.10177 -2.39158,0.10177 z m -1.14491,-25.11166 q -2.90043,0 -4.60507,1.98451 -1.6792,1.98451 -1.95907,5.77543 l 12.51766,0 q 0,-1.73009 -0.35619,-3.15486 -0.33075,-1.45022 -1.06858,-2.46791 -0.71239,-1.0177 -1.83185,-1.57743 -1.11947,-0.55974 -2.6969,-0.55974 z" /></g></g><path
     inkscape:connector-curvature="0"
     id="rect6564"
     d="m 185.40221,6.322264 243.5957,667.271486 0,-607.450784 c 0,-33.140669 -26.76,-59.820702 -60,-59.820702 l -183.5957,0 z"
     style="color:#000000;display:inline;overflow:visible;visibility:visible;opacity:0.40200004;fill:url(#linearGradient6723);fill-opacity:1;fill-rule:nonzero;stroke:none;stroke-width:2;stroke-linecap:butt;stroke-linejoin:round;stroke-miterlimit:4;stroke-dasharray:none;stroke-dashoffset:0;stroke-opacity:1;marker:none;marker-start:none;marker-mid:none;marker-end:none;enable-background:accumulate" /><path
     transform="matrix(2.105753,0,0,2.105753,-966.6969,-219.29832)"
     clip-path="url(#SVGID_7_)"
     d="m 568,118.009 c 0,1.652 -1.343,2.991 -3,2.991 -1.657,0 -3,-1.339 -3,-2.991 0,-1.652 1.343,-2.991 3,-2.991 1.657,0 3,1.338 3,2.991"
     id="path146"
     inkscape:connector-curvature="0"
     style="fill:#2e3436;stroke:#000000;stroke-opacity:1" /><path
     transform="matrix(2.225185,0,0,2.225185,-1034.3139,-236.90985)"
     clip-path="url(#SVGID_7_)"
     d="m 580.462,132.99 -29.938,0 c -1.329,0 -2.406,-1.077 -2.406,-2.406 0,-1.329 1.077,-2.406 2.406,-2.406 l 29.938,0 c 1.329,0 2.406,1.077 2.406,2.406 0,1.329 -1.077,2.406 -2.406,2.406"
     id="path148"
     inkscape:connector-curvature="0"
     style="fill:#2e3436;stroke:#000000" /></svg>
