<svg xmlns="http://www.w3.org/2000/svg" fill="#d6d1d1" viewBox="0 0 100 100" class="absolute z-10 pt-2 w-1/2  md:w-1/4 lg:w-1/6  ">
    <path
        d="M13.74,54.87l2.72-.07c2.89-.07,5.79.11,8.68.15,3.79,0,7.58,0,11.37,0,4.83,0,9.66.12,14.5.13,8.29,0,16.58,0,24.88-.1,4.32,0,8.65,0,13,.08,3.4.05-1.49-5-1.63-5.16q-3.14-3.42-6.52-6.57a9.31,9.31,0,0,0-4-2.82c-3.77-.23-7.53-.43-11.31-.34-1.87.05-3.74.08-5.61.2-2.14.13-4.27.3-6.41.28-4.85,0-9.71,0-14.56-.07-2.16,0-4.32,0-6.48-.16-2-.1-3.91-.33-5.87-.38-3.94-.11-7.9.21-11.84.13-1.52,0-3.08-.09-4.6-.21-1.3-.1-2.55-.42-3.85-.46L3.14,39.4c-.85-.19-1.27.15-1.26,1a9.13,9.13,0,0,0,2.37,4.22Q7,48.31,10.07,51.73A9,9,0,0,0,13.74,54.87Z"
        style="opacity: 0.109101;"></path>
    <path
        d="M14.83,50.72c3.83,0,7.65.14,11.48.19s7.59,0,11.38,0c4.84,0,9.68.13,14.52.14,8.29,0,16.58-.05,24.87-.11,4.32,0,8.64,0,13,.08a1,1,0,0,0,.88-1.37A5.72,5.72,0,0,0,88.31,47a69.3,69.3,0,0,0-5.92-3.81,5.75,5.75,0,0,0-3.53-1.26c-3.81-.19-7.62-.37-11.43-.29-1.84,0-3.68.06-5.52.16-2.1.11-4.19.25-6.29.24-4.87,0-9.74,0-14.6-.06-2.19,0-4.39,0-6.57-.12-2-.08-4-.28-6-.33-3.92-.08-7.86.18-11.79.13-1.57,0-3.16-.07-4.73-.17-1.36-.09-2.7-.34-4.06-.41l-3.19-.15a1.05,1.05,0,0,0-1,1.29A5.47,5.47,0,0,0,6,45a63.61,63.61,0,0,0,5.48,4.2A5.56,5.56,0,0,0,14.83,50.72Z"
        style="opacity: 0.109101;"></path>
    <path
        d="M16.69,54.52l2.69-.09c2.9-.11,5.83.07,8.73.11,3.79,0,7.58,0,11.37,0,4.84,0,9.69.1,14.54.11,12.62,0,25.23-.17,37.85,0,3.84.05-3.14-5.72-2.82-5.44q-4.1-3.51-8.42-6.74a12.4,12.4,0,0,0-4.9-2.85c-3.8-.23-7.6-.45-11.4-.35-1.86,0-3.72.09-5.57.21-2.12.14-4.22.31-6.33.29-4.86,0-9.72,0-14.58-.08-2.17,0-4.35,0-6.51-.16-2-.11-4-.34-6-.4-3.93-.1-7.87.21-11.8.13-1.54,0-3.11-.09-4.64-.22-1.34-.11-2.64-.45-4-.5L1.86,38.4c-3.73-.14,2.49,5.73,2.37,5.61q3.78,3.8,7.82,7.33A12.2,12.2,0,0,0,16.69,54.52Z"
        style="opacity: 0.109101;"></path>
    <path
        d="M22.84,61.25c3.87,0,7.73,0,11.6,0q13,0,26,.06c12.61,0,25.23-.11,37.84,0,.88,0,1.23-.39,1.05-1.25a9.29,9.29,0,0,0-3.13-3.72q-3.41-3.09-7.06-5.9A9.37,9.37,0,0,0,84.89,48c-3.78-.19-7.57-.4-11.36-.36-1.84,0-3.68,0-5.52.13-2.11.14-4.22.31-6.34.29-4.87,0-9.74,0-14.61,0-2.19,0-4.39,0-6.58-.08-2-.08-4-.31-6-.38-3.94-.13-7.9.16-11.84.16-1.58,0-3.19,0-4.77-.07-1.35-.08-2.71-.32-4.05-.45l-3.25-.29c-.87-.1-1.25.28-1.14,1.16A9.19,9.19,0,0,0,12.28,52q3.15,3.36,6.56,6.46A9.27,9.27,0,0,0,22.84,61.25Z"
        style="opacity: 0.109101;"></path>
    <path
        d="M21.87,56c3.86,0,7.71,0,11.56.07s7.58,0,11.37,0c4.85,0,9.71.09,14.57.1,12.61,0,25.23-.14,37.84,0,.89-.07,1.19-.53.89-1.37a9.66,9.66,0,0,0-3.67-3.39q-3.87-2.74-8-5.17a9.72,9.72,0,0,0-4.58-2c-3.81-.21-7.62-.42-11.43-.36-1.84,0-3.67.05-5.51.16-2.1.13-4.19.3-6.3.29-4.86,0-9.73,0-14.6-.06-2.19,0-4.39,0-6.58-.11-2-.09-4-.32-6-.38-3.93-.11-7.87.18-11.8.15-1.58,0-3.18,0-4.75-.13-1.37-.08-2.73-.36-4.1-.46l-3.23-.25c-.9,0-1.23.44-1,1.3A9.65,9.65,0,0,0,10,48.05c2.43,2,4.92,3.89,7.5,5.69A9.57,9.57,0,0,0,21.87,56Z"
        style="opacity: 0.109101;"></path>
    <path
        d="M12.84,51.69c1.55.39,3.11.75,4.66,1.12a6.15,6.15,0,0,0,2.09.25c1.28-.06,2.55-.12,3.83-.15,8.9-.16,17.81,0,26.71,0q19.77,0,39.52,0c.73,0,1.85-1.4,1.83-2.09a2.13,2.13,0,0,0-1.88-1.63H37.09c-3.37,0-6.73-.07-10.09,0l-4.78.11-3.13.37.51.1Q16,48.59,12.32,47.42a1.89,1.89,0,0,0-1.26.71,1.88,1.88,0,0,0-.63,1.31C10.51,50.45,12,51.48,12.84,51.69Z"
        style="opacity: 0.109101;"></path>
    <path
        d="M11.88,54.38l2.63-.11c2.83-.11,5.69.07,8.53.11,3.8.07,7.6,0,11.4,0,4.8,0,9.61.15,14.41.17H61.94c4,0,7.91-.11,11.87-.14,4.29,0,8.59,0,12.88.1a1.18,1.18,0,0,0,1.2-1.11,4.21,4.21,0,0,0-1.45-2.8,45.93,45.93,0,0,0-4-4.28,4.19,4.19,0,0,0-2.68-1.65c-3.72-.18-7.44-.36-11.17-.29-1.87,0-3.74.06-5.62.15-2.17.12-4.33.27-6.5.25-4.85,0-9.71,0-14.56-.05-2.17,0-4.34,0-6.51-.13-1.92-.08-3.83-.27-5.75-.32-4-.09-7.93.18-11.89.13s-7.61-.47-11.43-.65A1.18,1.18,0,0,0,5,44.69a4.17,4.17,0,0,0,1.06,3A46.27,46.27,0,0,0,9.45,52.4,4.1,4.1,0,0,0,11.88,54.38Z"
        style="opacity: 0.109101;"></path>
    <path
        d="M16.24,61.5c3.83-.07,7.65,0,11.47,0s7.59,0,11.38,0c4.84,0,9.68.1,14.52.11,12.62,0,25.23-.17,37.85,0,3,0-.35-4.2-.74-4.73-1.6-2.1-3.29-4.11-5.07-6a7,7,0,0,0-3.29-2.59c-3.73-.19-7.46-.38-11.19-.34-1.87,0-3.73,0-5.59.14-2.16.12-4.31.29-6.47.27-4.86,0-9.72,0-14.58,0-2.18,0-4.37,0-6.54-.08-1.94-.08-3.87-.3-5.8-.35-4-.13-7.94.15-11.9.14-1.57,0-3.16,0-4.73-.09-1.28-.07-2.56-.28-3.84-.39l-3.11-.27c-3-.26-.16,4.11.23,4.79,1.37,2.26,2.84,4.44,4.41,6.56A7,7,0,0,0,16.24,61.5Z"
        style="opacity: 0.109101;"></path>
    <path
        d="M19.29,51.14c3.84.06,7.69.16,11.54.19s7.59,0,11.38,0c4.85,0,9.69.12,14.54.12,12.61,0,25.21-.17,37.82,0a1.39,1.39,0,0,0,1.15-2.52,25.57,25.57,0,0,0-4.42-2.41,24.29,24.29,0,0,0-4.72-1.73c-3.83-.13-7.65-.26-11.47-.23s-7.81.29-11.71.27l-14.63,0c-2.21,0-4.42,0-6.62,0-2-.06-4.06-.2-6.09-.24-3.92-.07-7.85.11-11.77.11-4.21,0-8.39-.31-12.58-.65a1.57,1.57,0,0,0-1.84.58,1.57,1.57,0,0,0,.52,1.86,25,25,0,0,0,4.27,2.71A24.9,24.9,0,0,0,19.29,51.14Z"
        style="opacity: 0.109101;"></path>
    <path
        d="M13,58.54l2.7-.09c2.86-.09,5.74.06,8.61.09,3.8,0,7.6,0,11.4,0,4.81,0,9.63.13,14.45.14H63.24c3.95,0,7.89-.1,11.83-.12,4.31,0,8.62,0,12.93.09,2.77,0,.2-3.64-.26-4.34a63.2,63.2,0,0,0-4.24-5.42,5.44,5.44,0,0,0-2.87-2.29c-3.71-.19-7.42-.36-11.14-.31-1.87,0-3.75,0-5.62.14-2.17.11-4.34.27-6.52.25-4.85,0-9.71,0-14.57,0-2.16,0-4.34,0-6.5-.1-1.91-.08-3.82-.28-5.73-.33-4-.1-7.95.16-11.92.13-1.56,0-3.13,0-4.69-.11-1.25-.07-2.49-.28-3.73-.37l-3.05-.21C4.45,45.43,6.4,49,6.87,50a64.52,64.52,0,0,0,3.55,5.93A5.54,5.54,0,0,0,13,58.54Z"
        style="opacity: 0.109101;"></path>
    <path
        d="M18.36,50.12l3.24.28c2.94.26,5.91.14,8.87.14,8.63,0,17.26.05,25.9.05,12.6,0,25.2-.11,37.81,0,1.18,0,1.57-1.78,1-2.57a9.58,9.58,0,0,0-4.84-2C86.6,46,82.8,45.93,79,45.93s-7.84.13-11.76.12H52.63C48.4,46,44.18,46,40,45.91c-3.92,0-7.85,0-11.78.06H23.24a28.83,28.83,0,0,1-4.16-.13l-4.35-.64a1.49,1.49,0,0,0-1.26.92,1.51,1.51,0,0,0,0,1.56,7.69,7.69,0,0,0,2.27,1.55A7.57,7.57,0,0,0,18.36,50.12Z"
        style="opacity: 0.109101;"></path>
    <path
        d="M11,53.59c1.22.38,2.45.75,3.68,1.1l1.92.55L19,55.11c1.48-.1,3-.08,4.44-.1,8.66-.11,17.33,0,26,0H87.3a2.45,2.45,0,0,0,2-1.89,2.73,2.73,0,0,0-2-2.13q-18.93,0-37.86,0C41.25,51,33,50.9,24.76,51c-1.59,0-3.28-.08-4.86.09q-1,.19-1.95.42a1.47,1.47,0,0,1-1.67-.31l-5.14-2.12c-.84-.34-2.18.86-2.24,1.65a3.45,3.45,0,0,0,.78,1.66A3.36,3.36,0,0,0,11,53.59Z"
        style="opacity: 0.109101;"></path>
</svg>